<?xml version="1.0" encoding="UTF-8" standalone="no"?><!DOCTYPE svg PUBLIC "-//W3C//DTD SVG 1.1//EN" "http://www.w3.org/Graphics/SVG/1.1/DTD/svg11.dtd"><svg width="100%" height="100%" viewBox="0 0 55 55" version="1.1" xmlns="http://www.w3.org/2000/svg" xmlns:xlink="http://www.w3.org/1999/xlink" xml:space="preserve" xmlns:serif="http://www.serif.com/" style="fill-rule:evenodd;clip-rule:evenodd;stroke-linecap:square;stroke-miterlimit:1;"><g><rect x="4.511" y="6.283" width="0.6" height="41.949" style="fill:#cdb882;"/><rect x="49.892" y="6.283" width="0.6" height="41.949" style="fill:#cdb882;"/><path d="M9.872,4.518l0,0.6l35.196,0l0,-0.6l-35.196,0Z" style="fill:#cdb882;"/><path d="M9.872,50.482l0,-0.6l35.196,-0l0,0.6l-35.196,-0Z" style="fill:#cdb882;"/><g><rect x="4.511" y="48.105" width="1.369" height="0.612" style="fill:#cdb882;"/><rect x="7.257" y="48.105" width="5.33" height="0.612" style="fill:#cdb882;"/><rect x="6.198" y="42.305" width="0.577" height="2.824" style="fill:#cdb882;"/><rect x="6.198" y="46.628" width="0.577" height="3.878" style="fill:#cdb882;"/><rect x="6.198" y="49.882" width="2.165" height="0.624" style="fill:#cdb882;"/><rect x="5.545" y="45.461" width="3.883" height="0.706" style="fill:#cdb882;"/><rect x="8.821" y="45.908" width="0.607" height="1.872" style="fill:#cdb882;"/><rect x="2.5" y="45.461" width="1.572" height="0.706" style="fill:#cdb882;"/><rect x="2.5" y="45.461" width="0.579" height="7.039" style="fill:#cdb882;"/><rect x="2.5" y="51.803" width="6.928" height="0.697" style="fill:#cdb882;"/><rect x="8.815" y="49.155" width="0.613" height="3.345" style="fill:#cdb882;"/><path d="M6.486,42.305c3.366,-0 6.101,2.716 6.101,6.106" style="fill:none;stroke:#cdb882;stroke-width:0.6px;"/></g><g><rect x="4.511" y="6.283" width="1.369" height="0.612" style="fill:#cdb882;"/><rect x="7.257" y="6.283" width="5.33" height="0.612" style="fill:#cdb882;"/><rect x="6.198" y="9.872" width="0.577" height="2.824" style="fill:#cdb882;"/><rect x="6.198" y="4.495" width="0.577" height="3.878" style="fill:#cdb882;"/><rect x="6.198" y="4.495" width="2.165" height="0.624" style="fill:#cdb882;"/><rect x="5.545" y="8.833" width="3.883" height="0.706" style="fill:#cdb882;"/><rect x="8.821" y="7.22" width="0.607" height="1.872" style="fill:#cdb882;"/><rect x="2.5" y="8.833" width="1.572" height="0.706" style="fill:#cdb882;"/><rect x="2.5" y="2.5" width="0.579" height="7.039" style="fill:#cdb882;"/><rect x="2.5" y="2.5" width="6.928" height="0.697" style="fill:#cdb882;"/><rect x="8.815" y="2.5" width="0.613" height="3.345" style="fill:#cdb882;"/><path d="M6.486,12.695c3.366,0 6.101,-2.716 6.101,-6.106" style="fill:none;stroke:#cdb882;stroke-width:0.6px;"/></g><g><rect x="49.12" y="48.105" width="1.369" height="0.612" style="fill:#cdb882;"/><rect x="42.413" y="48.105" width="5.33" height="0.612" style="fill:#cdb882;"/><rect x="48.226" y="42.305" width="0.577" height="2.824" style="fill:#cdb882;"/><rect x="48.226" y="46.628" width="0.577" height="3.878" style="fill:#cdb882;"/><rect x="46.637" y="49.882" width="2.165" height="0.624" style="fill:#cdb882;"/><rect x="45.572" y="45.461" width="3.883" height="0.706" style="fill:#cdb882;"/><rect x="45.572" y="45.908" width="0.607" height="1.872" style="fill:#cdb882;"/><rect x="50.928" y="45.461" width="1.572" height="0.706" style="fill:#cdb882;"/><rect x="51.921" y="45.461" width="0.579" height="7.039" style="fill:#cdb882;"/><rect x="45.572" y="51.803" width="6.928" height="0.697" style="fill:#cdb882;"/><rect x="45.572" y="49.155" width="0.613" height="3.345" style="fill:#cdb882;"/><path d="M48.514,42.305c-3.366,-0 -6.101,2.716 -6.101,6.106" style="fill:none;stroke:#cdb882;stroke-width:0.6px;"/></g><g><rect x="49.12" y="6.283" width="1.369" height="0.612" style="fill:#cdb882;"/><rect x="42.413" y="6.283" width="5.33" height="0.612" style="fill:#cdb882;"/><rect x="48.226" y="9.872" width="0.577" height="2.824" style="fill:#cdb882;"/><rect x="48.226" y="4.495" width="0.577" height="3.878" style="fill:#cdb882;"/><rect x="46.637" y="4.495" width="2.165" height="0.624" style="fill:#cdb882;"/><rect x="45.572" y="8.833" width="3.883" height="0.706" style="fill:#cdb882;"/><rect x="45.572" y="7.22" width="0.607" height="1.872" style="fill:#cdb882;"/><rect x="50.928" y="8.833" width="1.572" height="0.706" style="fill:#cdb882;"/><rect x="51.921" y="2.5" width="0.579" height="7.039" style="fill:#cdb882;"/><rect x="45.572" y="2.5" width="6.928" height="0.697" style="fill:#cdb882;"/><rect x="45.572" y="2.5" width="0.613" height="3.345" style="fill:#cdb882;"/><path d="M48.514,12.695c-3.366,0 -6.101,-2.716 -6.101,-6.106" style="fill:none;stroke:#cdb882;stroke-width:0.6px;"/></g></g></svg>