<?xml version="1.0" encoding="UTF-8" standalone="no"?><!DOCTYPE svg PUBLIC "-//W3C//DTD SVG 1.1//EN" "http://www.w3.org/Graphics/SVG/1.1/DTD/svg11.dtd"><svg width="100%" height="100%" viewBox="0 0 36 36" version="1.1" xmlns="http://www.w3.org/2000/svg" xmlns:xlink="http://www.w3.org/1999/xlink" xml:space="preserve" xmlns:serif="http://www.serif.com/" style="fill-rule:evenodd;clip-rule:evenodd;stroke-miterlimit:10;"><g><g><g><g><path d="M2,21.5L2,14.5" style="fill:none;fill-rule:nonzero;stroke:#cdb882;stroke-width:1px;"/></g><g><path d="M14.5,2L21.5,2" style="fill:none;fill-rule:nonzero;stroke:#cdb882;stroke-width:1px;"/></g><g><path d="M34,14.5L34,21.5" style="fill:none;fill-rule:nonzero;stroke:#cdb882;stroke-width:1px;"/></g><g><path d="M21.5,34L14.5,34" style="fill:none;fill-rule:nonzero;stroke:#cdb882;stroke-width:1px;"/></g><g><rect x="2" y="2" width="3.1" height="3.1" style="fill:none;stroke:#cdb882;stroke-width:1px;"/><rect x="5.1" y="5.1" width="3.1" height="3.1" style="fill:none;stroke:#cdb882;stroke-width:1px;"/><rect x="8.3" y="5.1" width="3.1" height="3.1" style="fill:none;stroke:#cdb882;stroke-width:1px;"/><rect x="5.1" y="8.3" width="3.1" height="3.1" style="fill:none;stroke:#cdb882;stroke-width:1px;"/><path d="M5.1,8.3L2,8.3L2,14.5" style="fill:none;fill-rule:nonzero;stroke:#cdb882;stroke-width:1px;"/><path d="M14.5,2L8.3,2L8.3,5.1" style="fill:none;fill-rule:nonzero;stroke:#cdb882;stroke-width:1px;"/></g><g><rect x="30.9" y="2" width="3.1" height="3.1" style="fill:none;stroke:#cdb882;stroke-width:1px;"/><rect x="27.8" y="5.1" width="3.1" height="3.1" style="fill:none;stroke:#cdb882;stroke-width:1px;"/><rect x="27.8" y="8.3" width="3.1" height="3.1" style="fill:none;stroke:#cdb882;stroke-width:1px;"/><rect x="24.6" y="5.1" width="3.1" height="3.1" style="fill:none;stroke:#cdb882;stroke-width:1px;"/><path d="M27.8,5.1L27.8,2L21.5,2" style="fill:none;fill-rule:nonzero;stroke:#cdb882;stroke-width:1px;"/><path d="M34,14.5L34,8.3L30.9,8.3" style="fill:none;fill-rule:nonzero;stroke:#cdb882;stroke-width:1px;"/></g><g><rect x="30.9" y="30.9" width="3.1" height="3.1" style="fill:none;stroke:#cdb882;stroke-width:1px;"/><rect x="27.8" y="27.8" width="3.1" height="3.1" style="fill:none;stroke:#cdb882;stroke-width:1px;"/><rect x="24.6" y="27.8" width="3.1" height="3.1" style="fill:none;stroke:#cdb882;stroke-width:1px;"/><rect x="27.8" y="24.6" width="3.1" height="3.1" style="fill:none;stroke:#cdb882;stroke-width:1px;"/><path d="M30.9,27.8L34,27.8L34,21.5" style="fill:none;fill-rule:nonzero;stroke:#cdb882;stroke-width:1px;"/><path d="M21.5,34L27.8,34L27.8,30.9" style="fill:none;fill-rule:nonzero;stroke:#cdb882;stroke-width:1px;"/></g><g><rect x="2" y="30.9" width="3.1" height="3.1" style="fill:none;stroke:#cdb882;stroke-width:1px;"/><rect x="5.1" y="27.8" width="3.1" height="3.1" style="fill:none;stroke:#cdb882;stroke-width:1px;"/><rect x="5.1" y="24.6" width="3.1" height="3.1" style="fill:none;stroke:#cdb882;stroke-width:1px;"/><rect x="8.3" y="27.8" width="3.1" height="3.1" style="fill:none;stroke:#cdb882;stroke-width:1px;"/><path d="M8.3,30.9L8.3,34L14.5,34" style="fill:none;fill-rule:nonzero;stroke:#cdb882;stroke-width:1px;"/><path d="M2,21.5L2,27.8L5.1,27.8" style="fill:none;fill-rule:nonzero;stroke:#cdb882;stroke-width:1px;"/></g></g></g></g></svg>