<?xml version="1.0" encoding="UTF-8" standalone="no"?><!DOCTYPE svg PUBLIC "-//W3C//DTD SVG 1.1//EN" "http://www.w3.org/Graphics/SVG/1.1/DTD/svg11.dtd"><svg width="100%" height="100%" viewBox="0 0 33 33" version="1.1" xmlns="http://www.w3.org/2000/svg" xmlns:xlink="http://www.w3.org/1999/xlink" xml:space="preserve" xmlns:serif="http://www.serif.com/" style="fill-rule:evenodd;clip-rule:evenodd;stroke-miterlimit:10;"><g><g><g><path d="M0.5,20l0,-7" style="fill:none;fill-rule:nonzero;stroke:#fff;stroke-width:1px;"/><path d="M13,0.5l7,0" style="fill:none;fill-rule:nonzero;stroke:#fff;stroke-width:1px;"/><path d="M32.5,13l0,7" style="fill:none;fill-rule:nonzero;stroke:#fff;stroke-width:1px;"/><path d="M20,32.5l-7,0" style="fill:none;fill-rule:nonzero;stroke:#fff;stroke-width:1px;"/><rect x="0.5" y="0.5" width="3.1" height="3.1" style="fill:none;stroke:#fff;stroke-width:1px;"/><rect x="3.6" y="3.6" width="3.1" height="3.1" style="fill:none;stroke:#fff;stroke-width:1px;"/><rect x="6.8" y="3.6" width="3.1" height="3.1" style="fill:none;stroke:#fff;stroke-width:1px;"/><rect x="3.6" y="6.8" width="3.1" height="3.1" style="fill:none;stroke:#fff;stroke-width:1px;"/><path d="M3.6,6.8l-3.1,0l0,6.2" style="fill:none;fill-rule:nonzero;stroke:#fff;stroke-width:1px;"/><path d="M13,0.5l-6.2,0l0,3.1" style="fill:none;fill-rule:nonzero;stroke:#fff;stroke-width:1px;"/><rect x="29.4" y="0.5" width="3.1" height="3.1" style="fill:none;stroke:#fff;stroke-width:1px;"/><rect x="26.3" y="3.6" width="3.1" height="3.1" style="fill:none;stroke:#fff;stroke-width:1px;"/><rect x="26.3" y="6.8" width="3.1" height="3.1" style="fill:none;stroke:#fff;stroke-width:1px;"/><rect x="23.1" y="3.6" width="3.1" height="3.1" style="fill:none;stroke:#fff;stroke-width:1px;"/><path d="M26.3,3.6l0,-3.1l-6.3,0" style="fill:none;fill-rule:nonzero;stroke:#fff;stroke-width:1px;"/><path d="M32.5,13l0,-6.2l-3.1,0" style="fill:none;fill-rule:nonzero;stroke:#fff;stroke-width:1px;"/><rect x="29.4" y="29.4" width="3.1" height="3.1" style="fill:none;stroke:#fff;stroke-width:1px;"/><rect x="26.3" y="26.3" width="3.1" height="3.1" style="fill:none;stroke:#fff;stroke-width:1px;"/><rect x="23.1" y="26.3" width="3.1" height="3.1" style="fill:none;stroke:#fff;stroke-width:1px;"/><rect x="26.3" y="23.1" width="3.1" height="3.1" style="fill:none;stroke:#fff;stroke-width:1px;"/><path d="M29.4,26.3l3.1,0l0,-6.3" style="fill:none;fill-rule:nonzero;stroke:#fff;stroke-width:1px;"/><path d="M20,32.5l6.3,0l0,-3.1" style="fill:none;fill-rule:nonzero;stroke:#fff;stroke-width:1px;"/><rect x="0.5" y="29.4" width="3.1" height="3.1" style="fill:none;stroke:#fff;stroke-width:1px;"/><rect x="3.6" y="26.3" width="3.1" height="3.1" style="fill:none;stroke:#fff;stroke-width:1px;"/><rect x="3.6" y="23.1" width="3.1" height="3.1" style="fill:none;stroke:#fff;stroke-width:1px;"/><rect x="6.8" y="26.3" width="3.1" height="3.1" style="fill:none;stroke:#fff;stroke-width:1px;"/><path d="M6.8,29.4l0,3.1l6.2,0" style="fill:none;fill-rule:nonzero;stroke:#fff;stroke-width:1px;"/><path d="M0.5,20l0,6.3l3.1,0" style="fill:none;fill-rule:nonzero;stroke:#fff;stroke-width:1px;"/></g></g></g></svg>